<?xml version="1.0" encoding="UTF-8" standalone="no"?>
<svg viewBox="0 0 384 512" version="1.1" xmlns="http://www.w3.org/2000/svg">
    <rect style="fill:#ffffff" x="59" y="43" width="265" height="460" />
    <path style="fill:#1d82ff" d="M 73.337309,511.207 C 59.062273,509.80193 46.369038,503.5634 35.335211,492.52958 25.6395,482.83386 20.28893,473.14734 17.725874,460.65012 16.702855,455.66197 16.585915,434.66849 16.585915,256 16.585915,37.834439 16.308467,52.227624 20.728334,41.104225 27.073339,25.135868 41.2068,10.891789 56.593989,4.9578607 69.351072,0.03820876 59.843993,0.36056338 192.18028,0.36056338 h 119.70704 l 6.49014,1.64578702 c 13.20139,3.3476415 26.27337,11.4989256 34.63796,21.5991596 4.98419,6.0184 10.64829,17.281804 12.78872,25.43111 l 1.60994,6.129577 V 256 456.8338 l -1.60994,6.12958 c -3.46389,13.18815 -11.67884,26.1297 -21.84543,34.41456 -5.93407,4.83572 -17.32002,10.52219 -25.22068,12.5959 l -6.12958,1.60886 -116.46197,0.12452 C 132.09239,511.77573 76.828268,511.55061 73.337309,511.207 Z M 200.11268,489.28872 c 17.55501,-4.69638 27.64097,-22.11621 23.03855,-39.79073 -4.05473,-15.57126 -19.58418,-25.68757 -35.88404,-23.37583 -14.12788,2.00369 -25.14134,13.01715 -27.14503,27.14503 -2.28742,16.12842 7.75146,31.73301 23.06152,35.8472 5.00156,1.34404 12.27657,1.41896 16.929,0.17433 z M 324.31549,223.90986 V 43.459155 H 191.81972 59.323944 V 223.90986 404.36056 H 191.81972 324.31549 Z" />
    <path style="fill:#ff1d1d" d="m 182.44507,298.18592 v -24.15775 l -7.39155,0.003 c -7.50378,0.003 -17.65381,1.33076 -25.31921,3.31223 -2.32444,0.60085 -4.36999,0.94872 -4.54567,0.77304 -0.17568,-0.17566 -0.78379,-4.81808 -1.35135,-10.31645 -2.97046,-28.77705 -8.19744,-48.46618 -18.36195,-69.16637 -5.29381,-10.78091 -14.91533,-25.81057 -22.59689,-35.29829 -2.56893,-3.17296 -4.619812,-5.82319 -4.557518,-5.8894 0.06229,-0.0662 2.711698,0.17033 5.887568,0.52565 7.29786,0.81648 15.77392,2.97286 21.50449,5.47091 6.05614,2.63997 15.30221,8.81111 19.20335,12.81697 l 3.21493,3.30122 h -5.22066 c -3.77842,0 -5.32636,0.27545 -5.60327,0.99707 -0.21044,0.54838 2.03006,6.30838 4.97889,12.8 9.88217,21.75486 13.75899,34.68769 16.24669,54.19793 0.74678,5.85682 1.54252,10.8335 1.76831,11.05928 0.22578,0.22579 2.07142,0.0543 4.10141,-0.38103 2.02998,-0.43536 6.91998,-0.79156 10.86666,-0.79156 h 7.17577 v -41.45373 -41.45373 l -4.50704,0.37845 c -2.47888,0.20815 -5.59036,0.51193 -6.91443,0.67507 -2.02772,0.24985 -2.33482,0.10313 -1.94725,-0.93035 0.76318,-2.03506 19.17768,-35.55154 21.81498,-39.70574 1.34942,-2.12557 2.55759,-3.7481 2.68482,-3.60563 0.46418,0.51979 19.7391,35.71967 21.86015,39.92102 l 2.18437,4.32676 -6.7709,-0.2499 -6.7709,-0.24989 v 41.06583 41.06582 l 9.55493,0.44336 c 5.25521,0.24385 10.26048,0.64837 11.12281,0.89895 1.42235,0.4133 1.60684,0.13118 1.98755,-3.03957 3.17018,-26.40276 6.95847,-40.22076 16.72464,-61.00413 2.93514,-6.24627 5.41399,-12.08739 5.50856,-12.98028 0.15305,-1.44508 -0.18457,-1.64433 -3.07313,-1.81361 -1.78479,-0.10459 -4.02456,-0.36654 -4.97726,-0.5821 -1.69379,-0.38324 -1.66181,-0.46408 1.44225,-3.64623 6.53534,-6.69973 17.78799,-12.90739 27.95848,-15.42361 5.44125,-1.34619 16.7873,-3.0072 17.26673,-2.52777 0.13632,0.13631 -2.42962,3.60277 -5.70209,7.70323 -23.20986,29.08246 -36.22133,63.19485 -39.53097,103.63904 -0.40179,4.91001 -0.82368,9.01305 -0.93751,9.11786 -0.11383,0.10481 -2.31625,-0.25494 -4.89428,-0.79944 -5.91962,-1.25026 -18.7537,-2.94963 -26.50141,-3.50906 l -5.9493,-0.42958 v 24.53519 24.53518 h -10.8169 -10.8169 z" />
</svg>
