<?xml version="1.0" standalone="no"?>
<!DOCTYPE svg PUBLIC "-//W3C//DTD SVG 20010904//EN"
 "http://www.w3.org/TR/2001/REC-SVG-20010904/DTD/svg10.dtd">
<svg version="1.0" xmlns="http://www.w3.org/2000/svg"
 width="1024.000000pt" height="1024.000000pt" viewBox="0 0 1024.000000 1024.000000"
 preserveAspectRatio="xMidYMid meet">
<metadata>
Created by potrace 1.14, written by Peter Selinger 2001-2017
</metadata>
<g transform="translate(0.000000,1024.000000) scale(0.100000,-0.100000)"
fill="#000000" stroke="none">
<path d="M2845 10219 c-209 -8 -292 -22 -405 -69 -361 -149 -618 -412 -763
-780 -43 -110 -48 -198 -57 -1030 -11 -973 -11 -5076 0 -6345 7 -902 9 -943
28 -1021 63 -247 195 -457 403 -641 229 -203 452 -296 749 -313 85 -5 1186 -9
2445 -10 2269 0 2291 0 2365 20 114 31 185 58 301 115 202 100 331 204 451
365 107 144 173 277 235 475 l28 90 3 4020 c2 3725 1 4025 -14 4090 -58 241
-196 506 -341 653 -172 174 -391 297 -653 367 l-95 25 -2245 -2 c-1235 0
-2330 -5 -2435 -9z m4925 -4459 l0 -3610 -2652 2 -2653 3 -3 3608 -2 3607
2655 0 2655 0 0 -3610z m-2567 -4040 c219 -32 407 -166 497 -355 50 -105 64
-170 64 -285 0 -117 -14 -180 -66 -289 -57 -119 -167 -230 -288 -288 -109 -53
-172 -67 -295 -66 -185 1 -318 56 -445 183 -129 128 -192 280 -193 460 -2 316
217 579 528 635 88 16 113 17 198 5z"/>
<path d="M5117 7572 c-60 -91 -457 -818 -457 -837 0 -8 157 0 233 12 l37 6 0
-832 0 -831 -117 0 c-65 0 -164 -5 -220 -12 -57 -6 -105 -10 -107 -7 -3 3 -19
101 -36 219 -59 408 -131 651 -310 1050 -65 143 -110 259 -110 281 0 22 29 29
123 29 42 0 77 4 77 9 0 18 -127 125 -238 198 -138 93 -250 142 -412 182 -118
28 -316 59 -325 49 -2 -2 34 -53 81 -113 214 -274 397 -572 518 -847 148 -336
233 -669 290 -1143 14 -115 29 -231 32 -257 7 -57 7 -56 126 -28 145 34 278
51 456 57 l172 6 0 -487 0 -486 215 0 215 0 0 491 0 492 108 -7 c136 -9 385
-40 526 -67 59 -11 110 -18 112 -16 2 2 11 76 19 163 43 453 118 794 251 1141
131 341 288 619 525 926 54 70 107 139 116 154 l17 26 -69 -7 c-109 -11 -305
-53 -387 -82 -153 -55 -298 -140 -416 -242 -61 -52 -89 -88 -78 -99 2 -3 40
-9 82 -14 43 -5 82 -13 88 -19 14 -14 3 -42 -110 -293 -184 -407 -249 -634
-309 -1063 -15 -104 -30 -193 -34 -197 -5 -4 -75 -3 -157 3 -82 6 -178 11
-214 13 l-65 2 -3 823 -2 823 136 -7 136 -7 -37 74 c-30 58 -227 421 -417 766
-13 24 -26 43 -29 43 -4 0 -18 -17 -32 -38z"/>
</g>
</svg>
